<svg id="visual" viewBox="0 0 900 600" width="900" height="600" xmlns="http://www.w3.org/2000/svg" xmlns:xlink="http://www.w3.org/1999/xlink" version="1.1"><rect x="0" y="0" width="900" height="600" fill="#ffffff"></rect><defs><linearGradient id="grad1_0" x1="33.3%" y1="0%" x2="100%" y2="100%"><stop offset="20%" stop-color="#ffffff" stop-opacity="1"></stop><stop offset="80%" stop-color="#ffffff" stop-opacity="1"></stop></linearGradient></defs><defs><linearGradient id="grad2_0" x1="0%" y1="0%" x2="66.7%" y2="100%"><stop offset="20%" stop-color="#ffffff" stop-opacity="1"></stop><stop offset="80%" stop-color="#ffffff" stop-opacity="1"></stop></linearGradient></defs><g transform="translate(900, 0)"><path d="M0 324.5C-28 319 -56 313.5 -81.5 304.3C-107.1 295 -130.3 282 -156 270.2C-181.7 258.4 -210 247.9 -228.4 228.4C-246.8 208.9 -255.2 180.4 -269.3 155.5C-283.5 130.6 -303.3 109.3 -313.4 84C-323.6 58.7 -324 29.3 -324.5 0L0 0Z" fill="#80c5e3"></path></g><g transform="translate(0, 600)"><path d="M0 -324.5C24.9 -308.1 49.7 -291.7 76.1 -284C102.5 -276.3 130.4 -277.3 154 -266.7C177.6 -256.2 197.1 -234.1 212.1 -212.1C227.2 -190.2 237.9 -168.4 256.3 -148C274.7 -127.6 300.8 -108.4 313.4 -84C326.1 -59.5 325.3 -29.8 324.5 0L0 0Z" fill="#80c5e3"></path></g></svg>