<svg id="visual" viewBox="0 0 3200 1000" width="3200" height="1000" xmlns="http://www.w3.org/2000/svg" xmlns:xlink="http://www.w3.org/1999/xlink" version="1.1"><rect x="0" y="0" width="3200" height="1000" fill="#0e83b5"></rect><path d="M0 706L66.7 730.5C133.3 755 266.7 804 400 827.2C533.3 850.3 666.7 847.7 800 811.5C933.3 775.3 1066.7 705.7 1200 688.2C1333.3 670.7 1466.7 705.3 1600 736.8C1733.3 768.3 1866.7 796.7 2000 777.8C2133.3 759 2266.7 693 2400 683.8C2533.3 674.7 2666.7 722.3 2800 736.2C2933.3 750 3066.7 730 3133.3 720L3200 710L3200 1001L3133.3 1001C3066.7 1001 2933.3 1001 2800 1001C2666.7 1001 2533.3 1001 2400 1001C2266.7 1001 2133.3 1001 2000 1001C1866.7 1001 1733.3 1001 1600 1001C1466.7 1001 1333.3 1001 1200 1001C1066.7 1001 933.3 1001 800 1001C666.7 1001 533.3 1001 400 1001C266.7 1001 133.3 1001 66.7 1001L0 1001Z" fill="#ffffff"></path></svg>